<svg width="32" height="32" viewBox="0 0 32 32" fill="none" xmlns="http://www.w3.org/2000/svg">
  <rect width="32" height="32" rx="8" fill="#22c55e"/>
  <path d="M16 6L20 10H18V16C18 17.1046 17.1046 18 16 18C14.8954 18 14 17.1046 14 16V10H12L16 6Z" fill="white"/>
  <path d="M8 20C8 18.8954 8.89543 18 10 18H22C23.1046 18 24 18.8954 24 20V22C24 23.1046 23.1046 24 22 24H10C8.89543 24 8 23.1046 8 22V20Z" fill="white"/>
  <circle cx="11" cy="21" r="1" fill="#22c55e"/>
  <circle cx="13" cy="21" r="1" fill="#22c55e"/>
  <circle cx="19" cy="21" r="1" fill="#22c55e"/>
  <circle cx="21" cy="21" r="1" fill="#22c55e"/>
</svg>
